<svg id="Layer_1" data-name="Layer 1" xmlns="http://www.w3.org/2000/svg" viewBox="0 0 474.54 399.04"><defs><style>.cls-1,.cls-4,.cls-6,.cls-9{fill:#ba88a1;}.cls-1,.cls-10,.cls-11,.cls-2,.cls-3,.cls-4,.cls-5,.cls-6,.cls-7,.cls-8,.cls-9{stroke:#231f20;stroke-miterlimit:10;}.cls-1,.cls-2,.cls-3,.cls-4,.cls-5{stroke-width:13.02px;}.cls-2,.cls-7{fill:#f3845b;}.cls-3,.cls-8{fill:#fff;}.cls-11,.cls-3,.cls-4,.cls-8,.cls-9{stroke-linecap:round;}.cls-10,.cls-11,.cls-5{fill:none;}.cls-10,.cls-11,.cls-6,.cls-7,.cls-8,.cls-9{stroke-width:14.2px;}</style></defs><title>Untitled-1</title><path class="cls-1" d="M256.06,252.23h48.42a56.23,56.23,0,0,1,28.79,7.92,57.32,57.32,0,0,1,22.47,24.61,56.72,56.72,0,0,1,5.46,24.19h0V358.5H301.26a25.63,25.63,0,0,1-25.55-25.55v-4.71H263.43a25.63,25.63,0,0,1-25.55-25.55V298H225.6A25.63,25.63,0,0,1,200,272.42V252.23h56Z" transform="translate(-70.45 -197.05)"/><path class="cls-2" d="M516.85,374.48h0c-8.57,37.47-42.25,65.65-82.22,65.65H378.32V374.48H516.85Z" transform="translate(-70.45 -197.05)"/><path class="cls-2" d="M143.87,355.73H423.13v84.4H228.23a84.61,84.61,0,0,1-84.36-84.36h0v0Z" transform="translate(-70.45 -197.05)"/><line class="cls-3" x1="301.61" y1="186.81" x2="279.73" y2="186.81"/><line class="cls-3" x1="323.16" y1="186.81" x2="321.08" y2="186.81"/><line class="cls-3" x1="139.42" y1="186.81" x2="101.9" y2="186.81"/><path class="cls-4" d="M178.7,220.15H249a81.68,81.68,0,0,1,41.82,11.5A83.26,83.26,0,0,1,323.5,267.4a82.4,82.4,0,0,1,7.93,35.14h0V387.3s0.21,1.09-.26,1.18-0.92-.45-1.6-1.6c-2-3.45-5.73-11.63-20.58-12.34H244.37a37.23,37.23,0,0,1-37.12-37.12v-6.84H189.41a37.23,37.23,0,0,1-37.12-37.12v-6.84H134.45a37.23,37.23,0,0,1-37.12-37.12V220.15H178.7Z" transform="translate(-70.45 -197.05)"/><line class="cls-3" x1="136.79" y1="133.47" x2="194.28" y2="133.47"/><path class="cls-4" d="M244.62,242a60.55,60.55,0,0,1,31,8.52,61.72,61.72,0,0,1,24.2,26.5A61.08,61.08,0,0,1,305.7,303h0v53" transform="translate(-70.45 -197.05)"/><path class="cls-2" d="M237.95,524.59a4.91,4.91,0,0,1,2.63-4.35c3.12-1.63,8.16-3.85,10.43-4.8,12.84-5.43,32.25-17.08,32.25-37.8s-14.39-37.51-32.14-37.51H411.83c-17.75,0-32.14,16.8-32.14,37.51s19.41,32.37,32.25,37.8c2.27,1,7.31,3.17,10.43,4.8a4.91,4.91,0,0,1,2.63,4.35l0,28.08v15.41a4.92,4.92,0,0,1-4.92,4.92H242.83a4.92,4.92,0,0,1-4.92-4.92V552.67Z" transform="translate(-70.45 -197.05)"/><line class="cls-5" x1="354.55" y1="327.54" x2="167.48" y2="327.54"/><path class="cls-6" d="M251.64,239.13h52.81a61.32,61.32,0,0,1,31.4,8.63,62.51,62.51,0,0,1,24.5,26.84,61.86,61.86,0,0,1,6,26.38h0V355H300.94a28,28,0,0,1-27.87-27.87V322H259.68a28,28,0,0,1-27.87-27.87V289H218.42a28,28,0,0,1-27.87-27.87v-22h61.09Z" transform="translate(-70.45 -197.05)"/><path class="cls-7" d="M536.08,372.48h0c-9.35,40.86-46.08,71.6-89.67,71.6H385v-71.6H536.08Z" transform="translate(-70.45 -197.05)"/><path class="cls-7" d="M129.27,352H433.86v92.06H221.28c-50.61,0-92-41.41-92-92h0v0Z" transform="translate(-70.45 -197.05)"/><line class="cls-8" x1="307.72" y1="185.66" x2="283.85" y2="185.66"/><line class="cls-8" x1="331.22" y1="185.66" x2="328.94" y2="185.66"/><line class="cls-8" x1="130.81" y1="185.66" x2="89.89" y2="185.66"/><path class="cls-9" d="M167.27,204.15H244a89.09,89.09,0,0,1,45.61,12.54,90.82,90.82,0,0,1,35.6,39A89.87,89.87,0,0,1,333.85,294h0v92.44s0.23,1.19-.29,1.28-1-.49-1.75-1.74c-2.23-3.76-6.25-12.69-22.45-13.46H238.89A40.61,40.61,0,0,1,198.4,332v-7.46H178.95a40.61,40.61,0,0,1-40.49-40.49v-7.46H119a40.61,40.61,0,0,1-40.49-40.49v-32h88.75Z" transform="translate(-70.45 -197.05)"/><line class="cls-8" x1="127.94" y1="127.48" x2="190.65" y2="127.48"/><path class="cls-9" d="M239.17,227.93a66,66,0,0,1,33.81,9.3,67.32,67.32,0,0,1,26.39,28.9,66.62,66.62,0,0,1,6.41,28.41h0v57.79" transform="translate(-70.45 -197.05)"/><path class="cls-7" d="M231.89,536.2a5.35,5.35,0,0,1,2.87-4.74c3.4-1.78,8.9-4.19,11.37-5.24,14-5.92,35.18-18.63,35.18-41.22s-15.7-40.91-35.06-40.91H421.54c-19.36,0-35.06,18.32-35.06,40.91s21.17,35.3,35.18,41.22c2.47,1,8,3.46,11.37,5.24a5.35,5.35,0,0,1,2.87,4.74l0,30.63v16.8a5.37,5.37,0,0,1-5.37,5.37H237.21a5.37,5.37,0,0,1-5.37-5.37v-16.8Z" transform="translate(-70.45 -197.05)"/><line class="cls-10" x1="365.45" y1="339.15" x2="161.42" y2="339.15"/><line class="cls-11" x1="35.01" y1="358.17" x2="69.77" y2="358.17"/><line class="cls-11" x1="7.1" y1="358.17" x2="7.1" y2="358.17"/><line class="cls-11" x1="64.09" y1="322.95" x2="98.98" y2="322.95"/><line class="cls-11" x1="11.36" y1="291.73" x2="58.65" y2="291.73"/></svg>