<svg id="Layer_1" data-name="Layer 1" xmlns="http://www.w3.org/2000/svg" viewBox="0 0 474.54 399.04"><defs><style>.cls-1,.cls-4,.cls-6,.cls-9{fill:#ba88a1;}.cls-1,.cls-10,.cls-11,.cls-2,.cls-3,.cls-4,.cls-5,.cls-6,.cls-7,.cls-8,.cls-9{stroke:#231f20;stroke-miterlimit:10;}.cls-1,.cls-2,.cls-3,.cls-4,.cls-5{stroke-width:13.02px;}.cls-2,.cls-7{fill:#f3845b;}.cls-3,.cls-8{fill:#fff;}.cls-11,.cls-3,.cls-4,.cls-8,.cls-9{stroke-linecap:round;}.cls-10,.cls-11,.cls-5{fill:none;}.cls-10,.cls-11,.cls-6,.cls-7,.cls-8,.cls-9{stroke-width:14.2px;}</style></defs><title>Untitled-1</title><path class="cls-1" d="M357.58,252.23H309.16a56.23,56.23,0,0,0-28.79,7.92,57.32,57.32,0,0,0-22.47,24.61,56.72,56.72,0,0,0-5.46,24.19h0V358.5h59.93a25.63,25.63,0,0,0,25.55-25.55v-4.71h12.27a25.63,25.63,0,0,0,25.55-25.55V298H388a25.63,25.63,0,0,0,25.55-25.55V252.23h-56Z" transform="translate(-68.65 -197.05)"/><path class="cls-2" d="M96.79,374.48h0C105.36,412,139,440.13,179,440.13h56.31V374.48H96.79Z" transform="translate(-68.65 -197.05)"/><path class="cls-2" d="M469.77,355.73H190.51v84.4h194.9a84.61,84.61,0,0,0,84.36-84.36h0v0Z" transform="translate(-68.65 -197.05)"/><line class="cls-3" x1="172.92" y1="186.81" x2="194.8" y2="186.81"/><line class="cls-3" x1="151.38" y1="186.81" x2="153.46" y2="186.81"/><line class="cls-3" x1="335.12" y1="186.81" x2="372.63" y2="186.81"/><path class="cls-4" d="M434.93,220.15H364.6a81.68,81.68,0,0,0-41.82,11.5,83.26,83.26,0,0,0-32.64,35.75,82.4,82.4,0,0,0-7.93,35.14h0V387.3s-0.21,1.09.26,1.18,0.92-.45,1.6-1.6c2-3.45,5.73-11.63,20.58-12.34h64.61a37.23,37.23,0,0,0,37.12-37.12v-6.84h17.83a37.23,37.23,0,0,0,37.12-37.12v-6.84h17.83a37.23,37.23,0,0,0,37.12-37.12V220.15H434.93Z" transform="translate(-68.65 -197.05)"/><line class="cls-3" x1="337.75" y1="133.47" x2="280.25" y2="133.47"/><path class="cls-4" d="M369,242a60.55,60.55,0,0,0-31,8.52,61.72,61.72,0,0,0-24.2,26.5A61.08,61.08,0,0,0,307.94,303h0v53" transform="translate(-68.65 -197.05)"/><path class="cls-2" d="M375.69,524.59a4.91,4.91,0,0,0-2.63-4.35c-3.12-1.63-8.16-3.85-10.43-4.8-12.84-5.43-32.25-17.08-32.25-37.8s14.39-37.51,32.14-37.51H201.8c17.75,0,32.14,16.8,32.14,37.51s-19.41,32.37-32.25,37.8c-2.27,1-7.31,3.17-10.43,4.8a4.91,4.91,0,0,0-2.63,4.35l0,28.08v15.41a4.92,4.92,0,0,0,4.92,4.92H370.81a4.92,4.92,0,0,0,4.92-4.92V552.67Z" transform="translate(-68.65 -197.05)"/><line class="cls-5" x1="119.99" y1="327.54" x2="307.05" y2="327.54"/><path class="cls-6" d="M362,239.13H309.19a61.32,61.32,0,0,0-31.4,8.63,62.51,62.51,0,0,0-24.5,26.84,61.86,61.86,0,0,0-6,26.38h0V355H312.7a28,28,0,0,0,27.87-27.87V322H354a28,28,0,0,0,27.87-27.87V289h13.39a28,28,0,0,0,27.87-27.87v-22H362Z" transform="translate(-68.65 -197.05)"/><path class="cls-7" d="M77.55,372.48h0c9.35,40.86,46.08,71.6,89.67,71.6h61.42v-71.6H77.55Z" transform="translate(-68.65 -197.05)"/><path class="cls-7" d="M484.36,352H179.77v92.06H392.35c50.61,0,92-41.41,92-92h0v0Z" transform="translate(-68.65 -197.05)"/><line class="cls-8" x1="166.82" y1="185.66" x2="190.69" y2="185.66"/><line class="cls-8" x1="143.32" y1="185.66" x2="145.59" y2="185.66"/><line class="cls-8" x1="343.73" y1="185.66" x2="384.64" y2="185.66"/><path class="cls-9" d="M446.37,204.15H369.65A89.09,89.09,0,0,0,324,216.69a90.82,90.82,0,0,0-35.6,39A89.87,89.87,0,0,0,279.79,294h0v92.44s-0.23,1.19.29,1.28,1-.49,1.75-1.74c2.23-3.76,6.25-12.69,22.45-13.46h70.47A40.61,40.61,0,0,0,415.24,332v-7.46h19.45a40.61,40.61,0,0,0,40.49-40.49v-7.46h19.45a40.61,40.61,0,0,0,40.49-40.49v-32H446.37Z" transform="translate(-68.65 -197.05)"/><line class="cls-8" x1="346.59" y1="127.48" x2="283.88" y2="127.48"/><path class="cls-9" d="M374.47,227.93a66,66,0,0,0-33.81,9.3,67.32,67.32,0,0,0-26.39,28.9,66.62,66.62,0,0,0-6.41,28.41h0v57.79" transform="translate(-68.65 -197.05)"/><path class="cls-7" d="M381.75,536.2a5.35,5.35,0,0,0-2.87-4.74c-3.4-1.78-8.9-4.19-11.37-5.24-14-5.92-35.18-18.63-35.18-41.22s15.7-40.91,35.06-40.91H192.09c19.36,0,35.06,18.32,35.06,40.91S206,520.3,192,526.22c-2.47,1-8,3.46-11.37,5.24a5.35,5.35,0,0,0-2.87,4.74l0,30.63v16.8a5.37,5.37,0,0,0,5.37,5.37H376.43a5.37,5.37,0,0,0,5.37-5.37v-16.8Z" transform="translate(-68.65 -197.05)"/><line class="cls-10" x1="109.08" y1="339.15" x2="313.11" y2="339.15"/><line class="cls-11" x1="439.53" y1="358.17" x2="404.76" y2="358.17"/><line class="cls-11" x1="467.44" y1="358.17" x2="467.44" y2="358.17"/><line class="cls-11" x1="410.44" y1="322.95" x2="375.56" y2="322.95"/><line class="cls-11" x1="463.17" y1="291.73" x2="415.88" y2="291.73"/></svg>